<svg xmlns="http://www.w3.org/2000/svg" width="205.012" height="136.133" viewBox="0 0 205.012 136.133">
  <g id="undraw_page_not_found_re_e9o6" transform="translate(-0.005)">
    <path id="Path_590" data-name="Path 590" d="M451.316,300.845c-1.828-3.023-3.994-6.251-7.386-7.239-3.928-1.143-7.964,1.128-11.387,3.369a331.807,331.807,0,0,0-29.53,21.757l.01.117,22.036-1.52c5.307-.366,10.8-.782,15.486-3.293,1.78-.953,3.514-2.225,5.531-2.314,2.505-.11,4.69,1.64,6.407,3.468,10.155,10.814,13.094,27.352,24.488,36.853A361.573,361.573,0,0,0,451.316,300.845Z" transform="translate(-347.455 -262.584)" fill="#f2f2f2"/>
    <path id="Path_591" data-name="Path 591" d="M435.814,370.02c-1.123-1.418-1.582-1.75-2.69-3.181q-13.53-17.5-25.434-36.18Q399.6,317.972,392.321,304.8q-3.468-6.263-6.745-12.625-2.543-4.933-4.973-9.924c-.463-.951-.913-1.905-1.361-2.862-1.055-2.251-2.091-4.512-3.2-6.732-1.267-2.53-2.81-5.183-5.137-6.883a7.009,7.009,0,0,0-3.651-1.4,10.185,10.185,0,0,0-5.286,1.514,170.15,170.15,0,0,0-33.457,23.072,174.18,174.18,0,0,0-27.182,30.173c-.24.343-.808.015-.566-.33q1.432-2.026,2.921-4.007A175.144,175.144,0,0,1,348.4,273.079q4.349-2.819,8.862-5.373c1.516-.859,3.039-1.707,4.589-2.5a11.18,11.18,0,0,1,4.866-1.508c5.9-.092,8.961,6.594,11.061,11.093q.99,2.124,2,4.235,3.831,8.014,7.958,15.881,2.547,4.857,5.2,9.658,8.272,14.949,17.585,29.292c8.224,12.667,16.383,23.856,25.753,35.7C436.535,369.884,436.074,370.352,435.814,370.02Z" transform="translate(-269.529 -240.035)" fill="#e4e4e4"/>
    <path id="Path_592" data-name="Path 592" d="M245.47,321.222c-.343-.382-.684-.765-1.029-1.147-2.723-3.011-5.644-5.987-9.382-7.713a13.612,13.612,0,0,0-5.7-1.322,16.276,16.276,0,0,0-5.921,1.291c-.892.356-1.763.76-2.622,1.191-.981.494-1.945,1.02-2.9,1.551q-2.7,1.495-5.331,3.12-5.234,3.235-10.141,6.964-2.543,1.934-4.982,3.994-2.268,1.914-4.444,3.931c-.31.286-.773-.177-.463-.463.382-.356.769-.71,1.156-1.06q1.639-1.481,3.33-2.906,3.084-2.6,6.328-5,5.044-3.736,10.436-6.966,2.694-1.613,5.463-3.09c.557-.3,1.121-.588,1.691-.863a26.96,26.96,0,0,1,4.02-1.637,14.3,14.3,0,0,1,6.072-.6,15.809,15.809,0,0,1,5.6,1.938c3.671,2.052,6.518,5.224,9.288,8.321C246.213,321.071,245.752,321.537,245.47,321.222Z" transform="translate(-187.075 -275.607)" fill="#e4e4e4"/>
    <path id="Path_593" data-name="Path 593" d="M729.207,463.611l8.8-3.217,4.367-1.6a44.658,44.658,0,0,1,4.312-1.485,6.8,6.8,0,0,1,3.9.05,8.994,8.994,0,0,1,3.044,1.887,24.7,24.7,0,0,1,2.5,2.666c.951,1.143,1.888,2.3,2.829,3.448q5.826,7.124,11.575,14.311t11.422,14.433q5.686,7.265,11.294,14.591l1.373,1.8c.253.331.822,0,.566-.331q-5.65-7.4-11.378-14.738-5.742-7.356-11.564-14.65T760.521,466.25q-1.47-1.8-2.945-3.6c-.829-1.011-1.649-2.032-2.559-2.973-1.67-1.727-3.756-3.253-6.253-3.294a12.068,12.068,0,0,0-4.253.935c-1.471.532-2.938,1.074-4.406,1.611l-8.858,3.24-2.214.81c-.393.144-.223.777.174.632Z" transform="translate(-595.598 -386.795)" fill="#e4e4e4"/>
    <path id="Path_594" data-name="Path 594" d="M320.674,329.842a14.2,14.2,0,0,0-14.3,1.023,203.988,203.988,0,0,1,23.208,5.417C326.414,334.427,323.938,331.52,320.674,329.842Z" transform="translate(-273.848 -289.299)" fill="#f2f2f2"/>
    <path id="Path_595" data-name="Path 595" d="M303.438,338.784l-.861.7c.291-.245.594-.474.9-.692Z" transform="translate(-270.958 -297.226)" fill="#f2f2f2"/>
    <path id="Path_596" data-name="Path 596" d="M817.788,478.583a7.323,7.323,0,0,0-3.1-2.586l-1.209.048a137.155,137.155,0,0,0,36.531,41.764Z" transform="translate(-660.089 -401.735)" fill="#f2f2f2"/>
    <path id="Path_597" data-name="Path 597" d="M513.494,450.367a8.934,8.934,0,0,0,3.559,5c.672.458,1.467.9,1.7,1.677a2,2,0,0,1-.208,1.466,5.93,5.93,0,0,1-.92,1.2l-.033.122a10.83,10.83,0,0,1-4.176-3.945,5.323,5.323,0,0,1,.081-5.517" transform="translate(-430.985 -382.213)" fill="#f2f2f2"/>
    <path id="Path_598" data-name="Path 598" d="M746.494,653.367a8.934,8.934,0,0,0,3.559,5c.672.458,1.467.9,1.7,1.677a2,2,0,0,1-.208,1.466,5.932,5.932,0,0,1-.92,1.2l-.033.122a10.83,10.83,0,0,1-4.176-3.945,5.323,5.323,0,0,1,.081-5.517" transform="translate(-608.45 -536.828)" fill="#f2f2f2"/>
    <path id="Path_599" data-name="Path 599" d="M281.494,639.367a8.934,8.934,0,0,0,3.559,5c.672.458,1.467.9,1.7,1.677a2,2,0,0,1-.208,1.466,5.933,5.933,0,0,1-.92,1.2l-.033.122a10.831,10.831,0,0,1-4.176-3.945,5.323,5.323,0,0,1,.081-5.517" transform="translate(-254.282 -526.165)" fill="#f2f2f2"/>
    <circle id="Ellipse_146" data-name="Ellipse 146" cx="12.156" cy="12.156" r="12.156" transform="translate(142.596)" fill="#ff9e00"/>
    <path id="Path_600" data-name="Path 600" d="M834.723,175.91c-5.891-.8-12.617,2.388-14.144,8.133a5.147,5.147,0,0,0-9.795.5l.674.483a88.732,88.732,0,0,0,38.293-.173C845.653,180.549,840.614,176.706,834.723,175.91Z" transform="translate(-658.034 -173.08)" fill="#f0f0f0"/>
    <path id="Path_601" data-name="Path 601" d="M728.723,243.91c-5.891-.8-12.617,2.388-14.144,8.133a5.148,5.148,0,0,0-9.795.5l.674.483a88.732,88.732,0,0,0,38.293-.173C739.653,248.549,734.614,244.706,728.723,243.91Z" transform="translate(-577.299 -224.873)" fill="#f0f0f0"/>
    <path id="Path_602" data-name="Path 602" d="M378.958,205.309a.234.234,0,0,1-.072-.011A336.553,336.553,0,0,0,224.821,193.67c-4.831.775-9.675,1.67-14.4,2.66-1.206.253-2.456.523-3.717.805-1.506.335-2.992.681-4.417,1.026q-.923.219-1.81.441c-.9.221-1.8.452-2.779.7-1.089.281-2.195.575-3.289.875l-.012,0h0c-1.235.337-2.464.684-3.652,1.031-.643.186-1.264.369-1.859.55-.066.018-.125.036-.185.054l-.128.039-.22.066h0l-.193.06-.677.206c-5.85,1.8-9.066,3.086-9.1,3.1a.238.238,0,1,1-.177-.442c.032-.013,3.264-1.3,9.135-3.112l.679-.206.18-.056.019-.006.219-.065.128-.039c.064-.019.127-.038.191-.056.591-.18,1.214-.363,1.859-.55,1.189-.347,2.419-.694,3.655-1.032l.012,0h0c1.1-.3,2.208-.6,3.3-.878.976-.253,1.887-.484,2.784-.706q.891-.222,1.814-.442c1.427-.346,2.916-.692,4.424-1.028,1.263-.282,2.516-.553,3.724-.806,4.73-.992,9.581-1.888,14.419-2.664A337.024,337.024,0,0,1,379.03,204.843a.238.238,0,0,1-.072.466Z" transform="translate(-176.115 -183.207)" fill="#ccc"/>
    <path id="Path_603" data-name="Path 603" d="M287.873,503.888a1.6,1.6,0,0,0-.405-.636,1.532,1.532,0,0,0-.219-.169,1.832,1.832,0,0,0-2.143,0,1.386,1.386,0,0,0-.164.169q-.265.325-.543.636c-.305.348-.617.684-.944,1.011-.093.091-.186.184-.281.274-.055.055-.11.107-.164.16-.21.2-.424.393-.641.584-.114.1-.229.2-.346.3-.174.145-.348.291-.524.431-.017.012-.033.024-.05.038s-.007.007-.012.01,0,0-.007,0a.042.042,0,0,0-.017.012c-.052.036-.088.06-.114.081l.029-.017-.131.1c-.417.307-.844.6-1.28.88a23.644,23.644,0,0,1-3.389,1.8c-.079.031-.16.064-.241.1a20.49,20.49,0,0,1-9.737,1.435q-.508-.039-1.015-.107c-.391-.057-.779-.126-1.166-.205a23.34,23.34,0,0,1-4.3-1.3,28.281,28.281,0,0,1-4.924-2.889c-.238-.169-.479-.339-.72-.5.274-.672.543-1.344.806-2.021.131-.327.257-.653.381-.982.975-2.534,1.89-5.091,2.767-7.658q1.33-3.9,2.51-7.846.122-.4.236-.8.619-2.084,1.187-4.178c.036-.136.074-.269.107-.405q.164-.6.322-1.2a1.788,1.788,0,1,0-3.447-.951c-.1.386-.2.77-.31,1.156q-.754,2.8-1.587,5.58l-.243.8q-1.838,6.056-4.035,11.991-.265.719-.536,1.432c-.088.234-.176.467-.267.7-.174.46-.353.92-.532,1.38-.1.269-.207.539-.312.806-.069.169-.136.338-.2.505a9.967,9.967,0,0,0-2.1-.505l-.114-.014a6.531,6.531,0,0,0-1.671.014,5.7,5.7,0,0,0-4.109,2.541,4.728,4.728,0,0,0,.472,5.871,5.3,5.3,0,0,0,6.061.574,6.758,6.758,0,0,0,2.507-2.35,12.053,12.053,0,0,0,.653-1.108c.05.033.1.067.15.1.191.133.381.269.57.4a26.632,26.632,0,0,0,3.458,2.124,25.828,25.828,0,0,0,8.252,2.5l.191.024c.317.041.636.071.956.1a24.736,24.736,0,0,0,13.247-2.708q.518-.268,1.027-.562.79-.458,1.544-.972c.274-.186.541-.374.806-.572a24.081,24.081,0,0,0,3.22-2.848q.561-.59,1.075-1.218a1.922,1.922,0,0,0,.524-1.263A1.8,1.8,0,0,0,287.873,503.888ZM248.4,509.566c.05-.036.1-.074.148-.112C248.538,509.49,248.469,509.53,248.4,509.566Zm.765-.77c-.055.062-.1.124-.16.186a5.569,5.569,0,0,1-.536.524c-.026.024-.055.048-.083.069h0v0a.909.909,0,0,0-.1.052q-.154.093-.315.172a4.052,4.052,0,0,1-.646.179,4,4,0,0,1-.508,0h0a3.527,3.527,0,0,1-.346-.1c-.057-.029-.112-.062-.167-.1-.021-.019-.041-.038-.052-.05a.583.583,0,0,1-.064-.069v0h0c-.026-.048-.055-.1-.081-.143a.007.007,0,0,1,0,0c-.019-.06-.036-.122-.05-.184a2.981,2.981,0,0,1,0-.327,3.205,3.205,0,0,1,.129-.448,2.638,2.638,0,0,1,.164-.3c0-.01.029-.048.055-.091,0,0,0,0,0,0,.036-.041.072-.083.11-.122.064-.072.133-.133.2-.2a4.3,4.3,0,0,1,.417-.241,4.644,4.644,0,0,1,.7-.188,5.954,5.954,0,0,1,1.051.01,7.223,7.223,0,0,1,.977.241,8.8,8.8,0,0,1-.66,1.082C249.189,508.77,249.179,508.784,249.17,508.8Zm-2.65-.784a.519.519,0,0,1-.074.093A.336.336,0,0,1,246.519,508.012Z" transform="translate(-225.186 -403.82)" fill="#5a5873"/>
    <path id="Path_604" data-name="Path 604" d="M386.183,476.424q-.032,1.123-.064,2.245-.068,2.492-.141,4.986-.075,2.807-.157,5.611-.039,1.448-.081,2.9-.111,3.9-.219,7.8c-.007.269-.017.536-.024.806l-.107,3.868q-.061,2.1-.119,4.2-.043,1.573-.088,3.149l-.644,22.831a1.823,1.823,0,0,1-1.788,1.788,1.8,1.8,0,0,1-1.788-1.788q.179-6.421.362-12.842.161-5.806.327-11.612.054-1.913.107-3.828.082-2.882.162-5.763c.007-.269.017-.536.024-.806,0-.236.012-.47.019-.706l.315-11.193q.064-2.2.124-4.407l.143-5.024c.021-.737.041-1.471.062-2.207a1.823,1.823,0,0,1,1.788-1.788A1.8,1.8,0,0,1,386.183,476.424Z" transform="translate(-330.661 -400.698)" fill="#5a5873"/>
    <path id="Path_605" data-name="Path 605" d="M760.556,480.043A212.882,212.882,0,0,1,753.843,501c-.717,1.894-1.45,3.784-2.234,5.652l.18-.427a13.008,13.008,0,0,1-1.332,2.529q-.055.077-.111.152.278-.355.106-.14c-.061.072-.12.144-.183.213a5.644,5.644,0,0,1-.536.525q-.072.061-.146.12l.224-.174c-.026.061-.208.142-.265.177a4.356,4.356,0,0,1-.573.29l.427-.18a4.545,4.545,0,0,1-1.008.277l.475-.064a4.058,4.058,0,0,1-1.024.011l.475.064a3.34,3.34,0,0,1-.812-.219l.427.18a2.858,2.858,0,0,1-.4-.214c-.065-.042-.263-.193,0,.006s.035.018-.021-.037-.088-.1-.133-.142c-.21-.216.238.371.095.119a4.329,4.329,0,0,1-.209-.39l.18.427a2.847,2.847,0,0,1-.174-.632l.064.475a3.253,3.253,0,0,1,0-.812l-.064.475a3.805,3.805,0,0,1,.237-.877l-.18.427a3.993,3.993,0,0,1,.281-.548,1.6,1.6,0,0,1,.174-.255c.012,0-.3.361-.136.18.044-.047.084-.1.128-.143.071-.075.146-.143.221-.214.249-.237-.348.23-.061.043a4.544,4.544,0,0,1,.655-.357l-.427.18a4.84,4.84,0,0,1,1.191-.319l-.475.064a6.109,6.109,0,0,1,1.54.018l-.475-.064a7.917,7.917,0,0,1,1.881.529l-.427-.18a19.883,19.883,0,0,1,3.558,2.173,26.688,26.688,0,0,0,3.458,2.123,25.835,25.835,0,0,0,8.252,2.5,24.772,24.772,0,0,0,22.068-8.76,1.925,1.925,0,0,0,.524-1.264,1.788,1.788,0,0,0-3.052-1.264,22.793,22.793,0,0,1-1.932,2.08q-.481.456-.987.884-.289.245-.587.479c-.094.074-.386.271.063-.047-.1.073-.2.153-.3.228a23.66,23.66,0,0,1-4.846,2.756l.427-.18a23.081,23.081,0,0,1-5.761,1.578l.475-.064a23.275,23.275,0,0,1-6.138-.009l.475.064a23.788,23.788,0,0,1-5.925-1.614l.427.18a27.652,27.652,0,0,1-5.181-3,20.708,20.708,0,0,0-2.649-1.667,10.207,10.207,0,0,0-3.441-1.046,5.934,5.934,0,0,0-5.779,2.555,4.725,4.725,0,0,0,.47,5.869,5.3,5.3,0,0,0,6.063.573c1.863-.944,2.982-2.9,3.769-4.753,1.771-4.16,3.339-8.417,4.8-12.7q2.168-6.349,3.932-12.826.218-.8.431-1.606a1.788,1.788,0,0,0-3.448-.95Z" transform="translate(-606.97 -403.821)" fill="#5a5873"/>
    <path id="Path_606" data-name="Path 606" d="M883.866,476.424l-.643,22.832-.64,22.713-.362,12.843a1.8,1.8,0,0,0,1.788,1.788,1.823,1.823,0,0,0,1.788-1.788l.643-22.832.64-22.713.362-12.843a1.8,1.8,0,0,0-1.788-1.788,1.823,1.823,0,0,0-1.788,1.788Z" transform="translate(-712.444 -400.698)" fill="#5a5873"/>
    <path id="Path_608" data-name="Path 608" d="M585.469,629.364a15.029,15.029,0,0,1-4.779,8.032c-.176.153-.353.3-.536.446q-.669.061-1.328.124c-.365.033-.725.069-1.082.1l-.064.007-.045-.391-.181-1.583a8.967,8.967,0,0,1-.787-7.732,19.211,19.211,0,0,1,2.889-4.684c1.547-2.055,3.051-4.085,3.106-6.59a14.43,14.43,0,0,1,1.883,3.177,3.917,3.917,0,0,0-1.22.9c-.1.107-.2.257-.129.386.057.11.2.136.324.15l.9.093.715.076a15.256,15.256,0,0,1,.584,2.9A14.583,14.583,0,0,1,585.469,629.364Z" transform="translate(-479.312 -509.202)" fill="#3f3d56"/>
    <path id="Path_609" data-name="Path 609" d="M598.525,642.291a8.808,8.808,0,0,0-2.867,4.114,3.965,3.965,0,0,0-1.709,1.092c-.1.107-.2.257-.129.386.057.11.2.136.324.15l.9.093a21.207,21.207,0,0,1-2.355,5.518,8.816,8.816,0,0,1-2.867,2.6,9.161,9.161,0,0,1-.958.474q-1.816.139-3.563.3-.669.061-1.328.124c-.365.033-.725.069-1.082.1q0-.2,0-.393a15.089,15.089,0,0,1,3.635-9.5c.107-.124.217-.246.329-.367a14.73,14.73,0,0,1,4.007-3.027A14.935,14.935,0,0,1,598.525,642.291Z" transform="translate(-484.455 -528.377)" fill="#ff9e00"/>
    <path id="Path_610" data-name="Path 610" d="M568.612,636.659l-.274.81-.138.412c-.365.033-.725.069-1.082.1l-.064.007-1.182.122c-.1-.119-.205-.241-.305-.365a14.785,14.785,0,0,1,1.923-20.763,8.642,8.642,0,0,0,.655,4.791c-.064.026-.126.052-.186.081a3.916,3.916,0,0,0-1.22.9c-.1.107-.2.257-.129.386.057.11.2.136.324.15l.9.093.715.076.336.036c.017.036.031.069.048.1a28.95,28.95,0,0,1,1.823,4.488,10.415,10.415,0,0,1,.243,1.17A8.963,8.963,0,0,1,568.612,636.659Z" transform="translate(-468.685 -509.119)" fill="#ff9e00"/>
    <path id="Path_611" data-name="Path 611" d="M532.4,508.73a26.406,26.406,0,0,0-8.97-9.845A27.228,27.228,0,0,0,510.9,494.5q-.88-.08-1.764-.094c-.7-.01-11.171,3.011-14.679,5.478a27.243,27.243,0,0,0-8.422,9.421,24.431,24.431,0,0,0-2.89,12.307,27.068,27.068,0,0,0,3.5,12.269,26.332,26.332,0,0,0,8.686,9.235c3.656,2.333,7.328,8.517,11.644,8.736,4.349.22,9.309-5.614,13.275-7.386a24.891,24.891,0,0,0,9.945-8.105,26.278,26.278,0,0,0,4.671-11.667,26.986,26.986,0,0,0-1.144-12.875,26.657,26.657,0,0,0-1.33-3.095,1.8,1.8,0,0,0-2.446-.641,1.83,1.83,0,0,0-.641,2.446q.374.736.695,1.5l-.18-.427a24.111,24.111,0,0,1,1.639,6.087l-.064-.475a26.034,26.034,0,0,1-.016,6.836l.064-.475a26.152,26.152,0,0,1-1.8,6.6l.18-.427a24.833,24.833,0,0,1-1.59,3.122q-.458.759-.973,1.483c-.151.212-.306.42-.462.627-.2.271.278-.354.067-.088l-.108.136q-.162.2-.329.4a22.312,22.312,0,0,1-2.426,2.475q-.326.284-.662.556c-.112.09-.222.184-.339.268,0,0,.377-.286.156-.122l-.207.155q-.694.514-1.424.975a24.661,24.661,0,0,1-3.517,1.838l.427-.18a26.033,26.033,0,0,1-6.578,1.8l.475-.064a25.777,25.777,0,0,1-6.814.012l.475.064a23.8,23.8,0,0,1-5.981-1.617l.427.18a22.324,22.324,0,0,1-3.2-1.666q-.757-.477-1.474-1.012l-.2-.154c-.218-.165.157.122.16.123a4.579,4.579,0,0,1-.366-.292q-.346-.282-.682-.577a24.305,24.305,0,0,1-2.5-2.553q-.289-.342-.566-.694c-.08-.1-.226-.308.1.126-.042-.057-.086-.113-.129-.17q-.154-.2-.3-.412-.525-.726-1-1.489a26.048,26.048,0,0,1-1.86-3.6l.18.427a25.4,25.4,0,0,1-1.75-6.4l.064.475a23.325,23.325,0,0,1-.012-6.11l-.064.475a22.566,22.566,0,0,1,1.572-5.711l-.18.427a24.207,24.207,0,0,1,1.715-3.3q.492-.792,1.043-1.546.125-.171.253-.34c.077-.1.29-.356-.073.093.036-.044.07-.089.1-.134q.3-.383.62-.754a25.6,25.6,0,0,1,2.594-2.627q.351-.308.714-.6.165-.134.332-.265l.134-.1c-.476.379-.132.1-.024.022q.747-.56,1.534-1.063a24.7,24.7,0,0,1,3.667-1.933l-.427.18c1.85-.777,10.044-2.61,11.535-2.41l-.475-.064a25.319,25.319,0,0,1,6.369,1.76l-.427-.18a26.286,26.286,0,0,1,3,1.509q.725.425,1.422.9.33.223.653.456.161.117.321.236l.177.133c.248.186-.341-.269-.082-.064a26.426,26.426,0,0,1,2.471,2.206q.572.583,1.105,1.2.273.318.535.645c.087.108.383.5.02.02.089.117.178.234.266.352a23.354,23.354,0,0,1,2,3.227,1.8,1.8,0,0,0,2.446.641A1.83,1.83,0,0,0,532.4,508.73Z" transform="translate(-408.478 -415.759)" fill="#5a5873"/>
    <path id="Path_612" data-name="Path 612" d="M533.592,573.286a.9.9,0,0,1-.653-1.562l.062-.245-.025-.059c-.829-1.978-6.122,3.536-6.351,5.394a7.156,7.156,0,0,0,.126,2.462,28.7,28.7,0,0,1-2.61-11.918,27.694,27.694,0,0,1,.172-3.09q.142-1.262.395-2.505a29.029,29.029,0,0,1,5.756-12.3c1.638.091,3.074-.158,3.213-3.333.025-.565.444-1.054.536-1.61-.156.021-.315.033-.472.044l-.149.008h-.018a.893.893,0,0,1-.733-1.454l.2-.249c.1-.128.208-.254.31-.382a.444.444,0,0,0,.033-.038l.354-.436a2.58,2.58,0,0,0-.846-.818,2.975,2.975,0,0,0-3.667.856,4.665,4.665,0,0,0-.721,3.905,10.343,10.343,0,0,0,1.431,3.19c-.064.082-.131.162-.195.244a29.211,29.211,0,0,0-3.049,4.831c.242-1.892-2.72-8.725-3.866-10.173a2.493,2.493,0,0,0-4.44,1.224l-.007.064q.255.144.5.306a1.222,1.222,0,0,1-.493,2.224l-.025,0c-2.278,3.252,5.024,11.716,6.851,9.816a29.823,29.823,0,0,0-1.605,7.554,28.288,28.288,0,0,0,.021,4.567l-.008-.054c-.406-3.309-7.372-8.228-9.407-7.819-1.172.236-2.326.182-2.148,1.365l.009.057a8.2,8.2,0,0,1,.92.444q.255.144.5.306a1.222,1.222,0,0,1-.493,2.224l-.025,0-.051.008c-1.037,3.567,6.652,9.324,11.326,7.492h0a29.808,29.808,0,0,0,2,5.846h7.154c.026-.079.049-.162.072-.241a8.13,8.13,0,0,1-1.98-.118c.531-.651,1.062-1.308,1.592-1.959a.444.444,0,0,0,.033-.038c.269-.333.541-.664.81-1h0a11.907,11.907,0,0,0-.349-3.033ZM525.4,557.171l0-.005,0,.01Zm-1.585,14.285-.062-.138c0-.1,0-.2,0-.3,0-.028-.005-.056-.005-.085.023.177.044.354.069.531Z" transform="translate(-430.503 -451.143)" fill="#5a5873"/>
    <circle id="Ellipse_147" data-name="Ellipse 147" cx="2.622" cy="2.622" r="2.622" transform="translate(20.084 102.014)" fill="#5a5873"/>
    <circle id="Ellipse_148" data-name="Ellipse 148" cx="2.622" cy="2.622" r="2.622" transform="translate(51.547 130.615)" fill="#5a5873"/>
    <circle id="Ellipse_149" data-name="Ellipse 149" cx="2.622" cy="2.622" r="2.622" transform="translate(170.96 130.615)" fill="#5a5873"/>
    <circle id="Ellipse_150" data-name="Ellipse 150" cx="2.622" cy="2.622" r="2.622" transform="translate(177.395 97.247)" fill="#5a5873"/>
    <circle id="Ellipse_151" data-name="Ellipse 151" cx="2.622" cy="2.622" r="2.622" transform="translate(169.768 72.935)" fill="#5a5873"/>
    <path id="Path_613" data-name="Path 613" d="M417.5,575.066a2.61,2.61,0,1,1-.05-.515A2.61,2.61,0,0,1,417.5,575.066Z" transform="translate(-354.517 -475.198)" fill="#5a5873"/>
    <circle id="Ellipse_152" data-name="Ellipse 152" cx="2.622" cy="2.622" r="2.622" transform="translate(112.802 80.562)" fill="#5a5873"/>
    <path id="Path_614" data-name="Path 614" d="M528.5,505.066a2.61,2.61,0,1,1-.05-.515A2.61,2.61,0,0,1,528.5,505.066Z" transform="translate(-439.06 -421.882)" fill="#5a5873"/>
    <path id="Path_615" data-name="Path 615" d="M386.5,473.066a2.61,2.61,0,1,1-.05-.515A2.61,2.61,0,0,1,386.5,473.066Z" transform="translate(-330.905 -397.509)" fill="#5a5873"/>
    <circle id="Ellipse_153" data-name="Ellipse 153" cx="2.622" cy="2.622" r="2.622" transform="translate(140.213 102.967)" fill="#5a5873"/>
    <circle id="Ellipse_154" data-name="Ellipse 154" cx="3.814" cy="3.814" r="3.814" transform="translate(97.786 76.748)" fill="#5a5873"/>
    <path id="Path_616" data-name="Path 616" d="M374.667,733.453l-204.444.073a.284.284,0,1,1,0-.568l204.444-.073a.284.284,0,1,1,0,.568Z" transform="translate(-169.934 -597.394)" fill="#cacaca"/>
  </g>
</svg>
