<svg xmlns="http://www.w3.org/2000/svg" width="183.697" height="164.514" viewBox="0 0 183.697 164.514">
  <g id="Ilustracja" transform="translate(-88.151 -473)">
    <path id="Path_22" data-name="Path 22" d="M611.089,563.372H606.7l-2.09-16.937h6.481Z" transform="translate(-381.071 66.354)" fill="#9e616a"/>
    <path id="Path_23" data-name="Path 23" d="M762.908,737.892h-3.149l-.562-2.973-1.44,2.973h-8.352a1.877,1.877,0,0,1-1.067-3.422l6.67-4.606v-3.006l7.015.419Z" transform="translate(-530.573 -100.558)" fill="#5a5873"/>
    <path id="Path_24" data-name="Path 24" d="M687.392,551.442l-3.524,2.62-11.783-12.344,5.2-3.867Z" transform="translate(-431.287 72.742)" fill="#9e616a"/>
    <path id="Path_25" data-name="Path 25" d="M885.345,713.8l-2.527,1.879-2.225-2.05.619,3.245-6.7,4.984a1.877,1.877,0,0,1-2.9-2.11l2.6-7.676-1.793-2.412,5.879-3.85Z" transform="translate(-622.841 -84.895)" fill="#5a5873"/>
    <path id="Path_26" data-name="Path 26" d="M763.562,398.647s8.331,7.2,4.487,27.717l-4.693,20.106,15.3,25.39-4.88,5.937-19.9-27.482-7.21-16.912-2.023-30.1Z" transform="translate(-528.432 143.694)" fill="#5a5873"/>
    <path id="Path_27" data-name="Path 27" d="M597.989,425.746l-.5,7.761,1.534,33.071,7.216-1.257,1.379-23.546Z" transform="translate(-375.772 156.17)" fill="#5a5873"/>
    <path id="Path_28" data-name="Path 28" d="M237.444,584.147h3.927L243.238,569h-5.8Z" transform="translate(-107.829 49.561)" fill="#ffb6b6"/>
    <path id="Path_29" data-name="Path 29" d="M402.178,745.7h1.105l4.315-1.755,2.313,1.755h0a4.929,4.929,0,0,1,4.928,4.928v.161H402.178Z" transform="translate(-273.565 -113.275)" fill="#5a5873"/>
    <path id="Path_30" data-name="Path 30" d="M296.932,575.556l3.83.865,5.159-14.363-5.653-1.276Z" transform="translate(-152.101 55.677)" fill="#ffb6b6"/>
    <path id="Path_31" data-name="Path 31" d="M459.6,738.887l1.078.243,4.6-.761,1.87,2.221h0a4.928,4.928,0,0,1,3.722,5.893l-.035.156-12.351-2.788Z" transform="translate(-315.468 -109.124)" fill="#5a5873"/>
    <path id="Path_32" data-name="Path 32" d="M382.98,393.843c-1.841,5.553-1.646,11.58.443,18.049l.893,36.421s-1.331,23.884,2.963,32.289H393.5l3.083-34.47L396.974,423l13.349,19.52-8.5,37.524,7.663.685L423.281,440l-17.022-39.508Z" transform="translate(-258.339 147.269)" fill="#5a5873"/>
    <path id="Path_33" data-name="Path 33" d="M639.952,317.339c4.762-4.292,11.846-6.449,17.788-4.043a29.537,29.537,0,0,0-13.273,15.332c-.946,2.517-1.736,5.414-4.063,6.762a6.6,6.6,0,0,1-4.872.475,19.608,19.608,0,0,1-4.579-2.019l-.418-.009C632.411,327.705,635.19,321.631,639.952,317.339Z" transform="translate(-443.508 207.957)" fill="#e6e6e6"/>
    <path id="Path_34" data-name="Path 34" d="M657.9,315.893a25.247,25.247,0,0,0-14.045,6.633,10.871,10.871,0,0,0-2.135,2.654,6.235,6.235,0,0,0-.721,3.2,12.909,12.909,0,0,1-.055,3.123,3.818,3.818,0,0,1-1.9,2.478,9.919,9.919,0,0,1-3.808,1.04,9.74,9.74,0,0,0-4.232,1.157c-.153.1-.3-.144-.145-.243,2.193-1.421,4.968-.9,7.326-1.852a3.867,3.867,0,0,0,2.418-2.394,10.014,10.014,0,0,0,.116-3.17,6.655,6.655,0,0,1,.588-3.157,10.053,10.053,0,0,1,2.025-2.727,24.494,24.494,0,0,1,6.225-4.456,25.694,25.694,0,0,1,8.339-2.573c.18-.023.181.26,0,.283Z" transform="translate(-443.702 205.49)" fill="#fff"/>
    <path id="Path_35" data-name="Path 35" d="M684.4,323.453a3.788,3.788,0,0,1,.417-4.887c.13-.128.334.068.2.2a3.507,3.507,0,0,0-.379,4.547c.106.148-.137.292-.243.145Z" transform="translate(-483.072 203.321)" fill="#fff"/>
    <path id="Path_36" data-name="Path 36" d="M669.857,360.385a7.3,7.3,0,0,0,5.217-1.045c.153-.1.3.144.145.243a7.594,7.594,0,0,1-5.431,1.076C669.609,360.627,669.679,360.353,669.857,360.385Z" transform="translate(-472.641 172.963)" fill="#fff"/>
    <path id="Path_37" data-name="Path 37" d="M713.688,321.748a2.144,2.144,0,0,0,1.6,1.252c.18.03.109.3-.069.274a2.4,2.4,0,0,1-1.777-1.381.146.146,0,0,1,.049-.194A.142.142,0,0,1,713.688,321.748Z" transform="translate(-505.195 200.973)" fill="#fff"/>
    <path id="Path_38" data-name="Path 38" d="M663.3,375.13c-.113-.016-.225-.031-.34-.045a28.229,28.229,0,0,0-4.574-.232c-.118,0-.238.005-.356.01a29.767,29.767,0,0,0-10.68,2.458,28.908,28.908,0,0,0-3.879,2.061c-1.711,1.083-3.479,2.394-5.392,2.836a4.967,4.967,0,0,1-.6.108l-7.9-6.842c-.01-.025-.022-.047-.032-.072l-.328-.259.187-.135.108-.077c.024-.017.048-.034.069-.051l.023-.015c.021-.017.042-.03.061-.045q.538-.381,1.083-.756s0,0,0,0a42.5,42.5,0,0,1,8.851-4.758c.094-.035.189-.073.287-.105a27.585,27.585,0,0,1,4.333-1.219,24.385,24.385,0,0,1,2.444-.341,20.277,20.277,0,0,1,6.324.448,16.1,16.1,0,0,1,10.144,6.762C663.185,374.949,663.241,375.038,663.3,375.13Z" transform="translate(-442.521 166.819)" fill="#e6e6e6"/>
    <path id="Path_39" data-name="Path 39" d="M663.69,386.983a25.246,25.246,0,0,0-15.208-3.16,10.872,10.872,0,0,0-3.3.834,6.236,6.236,0,0,0-2.5,2.122,12.9,12.9,0,0,1-1.924,2.461,3.818,3.818,0,0,1-3.009.835,9.918,9.918,0,0,1-3.667-1.462A9.74,9.74,0,0,0,630,386.99c-.182-.013-.151-.294.03-.281,2.606.186,4.511,2.269,6.964,2.932a3.867,3.867,0,0,0,3.372-.455,10.015,10.015,0,0,0,2-2.461,6.655,6.655,0,0,1,2.37-2.166A10.051,10.051,0,0,1,648,383.6a24.492,24.492,0,0,1,7.653.19,25.694,25.694,0,0,1,8.208,2.966c.157.09-.012.316-.168.227Z" transform="translate(-443.019 155.051)" fill="#fff"/>
    <path id="Path_40" data-name="Path 40" d="M709.2,373.359a3.788,3.788,0,0,1,3.276-3.651c.18-.024.226.255.045.279a3.508,3.508,0,0,0-3.04,3.4c0,.182-.285.15-.281-.03Z" transform="translate(-502.048 165.231)" fill="#fff"/>
    <path id="Path_41" data-name="Path 41" d="M680.137,394.682a7.3,7.3,0,0,0,4.794,2.307c.182.014.151.294-.03.281a7.594,7.594,0,0,1-4.984-2.411C679.793,394.725,680.013,394.549,680.137,394.682Z" transform="translate(-480.229 146.68)" fill="#fff"/>
    <path id="Path_42" data-name="Path 42" d="M740.1,387.737a2.144,2.144,0,0,0,.527,1.965c.125.132-.1.308-.22.177a2.4,2.4,0,0,1-.587-2.173.146.146,0,0,1,.156-.125A.142.142,0,0,1,740.1,387.737Z" transform="translate(-524.793 151.929)" fill="#fff"/>
    <path id="Path_53" data-name="Path 53" d="M583.678,286.761a2.967,2.967,0,0,1-4.545.214l-9.67,4.206.942-5.4,9.038-3.166a2.983,2.983,0,0,1,4.235,4.144Z" transform="translate(-398.058 230.534)" fill="#ffb8b8"/>
    <path id="Path_54" data-name="Path 54" d="M446.686,263.617l-22.459,10-.048-.017-25.6-9.122a8.431,8.431,0,0,1-3.781-10.937h0a8.422,8.422,0,0,1,12.02-3.744l19.05,11.475,18.472-2.394Z" transform="translate(-267.519 255.363)" fill="#e6e6e6"/>
    <path id="Path_56" data-name="Path 56" d="M407.389,274.77l-22.64-3.621A4.321,4.321,0,0,1,382.2,265.1l1.027-2.054-.4-21.576a15.983,15.983,0,0,1,7.76-13.981l2.208-1.32,1.116-2.833,10.289.251.03,3.716,3.685,5.875v.024l-.231,31.979-1.015,3.3,1.535,3.839Z" transform="translate(-258.36 274.16)" fill="#e6e6e6"/>
    <circle id="Ellipse_5" data-name="Ellipse 5" cx="9.348" cy="9.348" r="9.348" transform="translate(132.292 475.275)" fill="#ffb8b8"/>
    <path id="Path_57" data-name="Path 57" d="M414.577,141.24a12.366,12.366,0,0,1,.007-4.01,11.225,11.225,0,0,1,4.751-7.795,3.423,3.423,0,0,1,1.7-.678,1.472,1.472,0,0,1,1.48.9,3.068,3.068,0,0,1,1.731-1.716,5.407,5.407,0,0,1,2.464-.332,9,9,0,0,1,7.511,5.369c.25.593.947-1.6,1.263-1.037a2.492,2.492,0,0,0,1.413,1.242c.62.173.872,2.727,1.116,2.131a2.839,2.839,0,0,1-2.714,3.959,15.638,15.638,0,0,1-1.858-.356,4.631,4.631,0,0,0-5.071,3.466,6.136,6.136,0,0,0-.807-1.8,2.077,2.077,0,0,0-1.666-.915,2.333,2.333,0,0,0-1.6.922c-.412.483-.721,1.047-1.135,1.528-1.216,1.41-2.862,4.7-4.6,4.459C417.2,146.387,414.957,142.844,414.577,141.24Z" transform="translate(-282.67 345.421)" fill="#3f3d56"/>
    <path id="Path_58" data-name="Path 58" d="M532,311.637a1.825,1.825,0,0,0-1.23-2.009L505.6,301.243a1.825,1.825,0,0,0-.75-.086l-6.31.6-3.621.343-6.681.631a1.83,1.83,0,0,0-1.633,1.532l-3.392,21.19a1.838,1.838,0,0,0,1.147,1.994l25.438,9.819a1.781,1.781,0,0,0,.37.1,1.827,1.827,0,0,0,.557,0l16.437-2.436A1.821,1.821,0,0,0,528.7,333.4Z" transform="translate(-333.853 216.252)" fill="#fff"/>
    <path id="Path_59" data-name="Path 59" d="M489.588,330.609l25.438,9.818a.23.23,0,0,0,.117.014l16.435-2.436a.226.226,0,0,0,.193-.192l3.3-21.761a.231.231,0,0,0-.153-.251l-.169-.057-25.007-8.326a.177.177,0,0,0-.035-.008.229.229,0,0,0-.059,0l-15.39,1.456-1.221.115a.231.231,0,0,0-.2.191l-3.392,21.19A.23.23,0,0,0,489.588,330.609Z" transform="translate(-338.507 211.595)" fill="#ff9e00"/>
    <path id="Path_60" data-name="Path 60" d="M508.282,308.863l15.39-1.456a.228.228,0,0,1,.059,0,.171.171,0,0,1,.035.008l25.007,8.325-6.6.7-2.469.26-7.025.742a.492.492,0,0,1-.062,0l-.04-.012Z" transform="translate(-352.527 211.595)" fill="#2f2e41"/>
    <path id="Path_61" data-name="Path 61" d="M484.354,327.446l25.438,9.818a1.72,1.72,0,0,0,.371.1,1.849,1.849,0,0,0,.557.007l16.435-2.436A1.825,1.825,0,0,0,528.7,333.4l3.3-21.761a1.839,1.839,0,0,0-.107-.951c-.017-.04-.033-.08-.053-.118a1.788,1.788,0,0,0-.579-.69,1.827,1.827,0,0,0-.49-.25l-.03-.011L505.6,301.242a2.292,2.292,0,0,0-.314-.076,1.812,1.812,0,0,0-.439-.008l-6.309.595-3.62.345-6.683.631a1.814,1.814,0,0,0-.772.255.339.339,0,0,0-.052.031.3.3,0,0,0-.033.025,1.829,1.829,0,0,0-.774,1.219l-3.395,21.192A1.84,1.84,0,0,0,484.354,327.446Zm2.7-23.114a1.355,1.355,0,0,1,.325-.683,1.189,1.189,0,0,1,.173-.169,1.36,1.36,0,0,1,.594-.277,1.038,1.038,0,0,1,.13-.018l11.252-1.063,5.363-.51c.036,0,.07,0,.1-.006a1.277,1.277,0,0,1,.242.018,1.062,1.062,0,0,1,.216.052l25.174,8.385.057.021a1.371,1.371,0,0,1,.868,1.483l-3.305,21.763a1.368,1.368,0,0,1-1.153,1.152l-16.437,2.436a1.385,1.385,0,0,1-.7-.079l-25.438-9.816a1.382,1.382,0,0,1-.859-1.5Z" transform="translate(-333.849 216.252)" fill="#3f3d56"/>
    <path id="Path_62" data-name="Path 62" d="M499.316,308.551a.225.225,0,0,1,.069-.1.272.272,0,0,1,.033-.023l.032-.015a.224.224,0,0,1,.16,0l.53.187,25.866,9.125,6.054-.64,3.388-.357,7.17-.759.641-.067.125-.014a.231.231,0,0,1,.243.167.182.182,0,0,1,.007.037.229.229,0,0,1-.141.236.255.255,0,0,1-.063.017l-.872.091-7.061.746-2.469.26-7.025.742a.494.494,0,0,1-.062,0l-.04-.012-26.356-9.295-.089-.032a.171.171,0,0,1-.056-.031A.233.233,0,0,1,499.316,308.551Z" transform="translate(-345.846 210.857)" fill="#3f3d56"/>
    <path id="Path_63" data-name="Path 63" d="M588.359,369.962a.229.229,0,0,1-.19-.26l3.713-24.643a.229.229,0,0,1,.26-.192h0a.229.229,0,0,1,.19.26l-3.714,24.643a.229.229,0,0,1-.26.192Z" transform="translate(-411.977 183.719)" fill="#3f3d56"/>
    <path id="Path_64" data-name="Path 64" d="M618.531,365.319l-2.47.261,2.889-24.438s3.3-.6,3.387-.358C622.391,340.927,618.555,365.163,618.531,365.319Z" transform="translate(-432.736 186.798)" fill="#3f3d56"/>
    <path id="Path_65" data-name="Path 65" d="M331.056,182.533l-.066,11.145,19.729,7.518,7.085-9.517Z" transform="translate(-177.446 337.167)" fill="#3f3d56"/>
    <path id="Path_66" data-name="Path 66" d="M594.7,297.969a1.356,1.356,0,0,0-.639-.444L568.89,289.14a1.3,1.3,0,0,0-.217-.053,1.278,1.278,0,0,0-.243-.018l.041-.255.252-.182L574.7,284.3l19.963,6.118.035,6.92Z" transform="translate(-397.289 228.788)" fill="#3f3d56"/>
    <path id="Path_67" data-name="Path 67" d="M502.607,380.075a.386.386,0,0,1,.083.018l7.724,2.537a.384.384,0,1,1-.239.729l-7.724-2.537a.384.384,0,0,1,.156-.747Z" transform="translate(-347.991 157.517)" fill="#fff"/>
    <circle id="Ellipse_6" data-name="Ellipse 6" cx="3.07" cy="3.07" r="3.07" transform="translate(182.709 578.204)" fill="#f2f2f2"/>
    <circle id="Ellipse_10" data-name="Ellipse 10" cx="3.07" cy="3.07" r="3.07" transform="translate(265.709 526.141)" fill="#ff9e00"/>
    <circle id="Ellipse_7" data-name="Ellipse 7" cx="3.07" cy="3.07" r="3.07" transform="translate(104.432 589.46)" fill="#f2f2f2"/>
    <circle id="Ellipse_8" data-name="Ellipse 8" cx="3.07" cy="3.07" r="3.07" transform="translate(168.384 487.904)" fill="#f2f2f2"/>
    <circle id="Ellipse_11" data-name="Ellipse 11" cx="2.003" cy="2.003" r="2.003" transform="translate(88.151 509.421)" fill="#ff9e00"/>
    <circle id="Ellipse_12" data-name="Ellipse 12" cx="1.465" cy="1.465" r="1.465" transform="translate(211.097 620.562)" fill="#ff9e00"/>
    <path id="Path_68" data-name="Path 68" d="M546.981,376.365a2.967,2.967,0,0,1-4.069-2.036l-10.491-1.06,3.461-4.248,9.432,1.658a2.983,2.983,0,0,1,1.667,5.686Z" transform="translate(-370.491 165.741)" fill="#ffb8b8"/>
    <path id="Path_69" data-name="Path 69" d="M436.82,286.991l-24.483-2.256-.034-.039-17.868-20.474a8.431,8.431,0,0,1,2.05-11.389h0a8.422,8.422,0,0,1,12.315,2.612l11.005,19.325,17.284,6.944Z" transform="translate(-266.782 253.43)" fill="#e6e6e6"/>
    <path id="Path_70" data-name="Path 70" d="M736.845,191.687c-.608-4.46-1.371-9.248-4.516-12.467a10.578,10.578,0,0,0-15.283.158,13.994,13.994,0,0,0-3.393,9.219,36.311,36.311,0,0,0,1.48,9.9,30.515,30.515,0,0,0,12.736-2.507,20.523,20.523,0,0,1,3.054-1.2c1.061-.27,1.817.41,2.8.883l.542-1.037c.444.825,1.817.581,2.315-.213A4.094,4.094,0,0,0,736.845,191.687Z" transform="translate(-505.357 309.361)" fill="#3f3d56"/>
    <path id="Path_71" data-name="Path 71" d="M669.181,308.577l-17.875.382a2.828,2.828,0,1,0-1.264,3.984c2.371.135,20.918,2.767,22.024,1.071,1.123-1.722,7.118-7.8,7.118-7.8l-4.608-6.56Z" transform="translate(-455.038 217.363)" fill="#9e616a"/>
    <circle id="Ellipse_9" data-name="Ellipse 9" cx="8.398" cy="8.398" r="8.398" transform="translate(210.1 488.664)" fill="#9e616a"/>
    <path id="Path_72" data-name="Path 72" d="M599.361,299.184" transform="translate(-420.308 217.714)" fill="#6c63ff"/>
    <path id="Path_73" data-name="Path 73" d="M747.213,269.741c-.99-1.97-1.47-4.4-3.58-5.041-1.425-.431-7.187.215-8.486.943-2.16,1.211-.2,3.48-1.477,5.6-1.385,2.308-5.15,6.94-6.535,9.248-.952,1.587,2.255,6.244,1.741,8.022a7.244,7.244,0,0,0,.338,5.4c.785,1.458-.351,2.749.439,4.2.821,1.514,1.829,7.176,1.064,8.72l-.512,1.535c5.077.3,9.346-5.767,14.391-6.406a7.819,7.819,0,0,0,3.587-1.093c1.521-1.071,2.122-3.016,2.5-4.838A40.757,40.757,0,0,0,747.213,269.741Z" transform="translate(-515.263 243.48)" fill="#3f3d56"/>
    <path id="Path_74" data-name="Path 74" d="M777.736,335.261c-.707-1.93-1.987-10.37-1.987-10.37l-8.013-.235,3.918,9.662-10.69,14.965.056.092a2.827,2.827,0,1,0,2.371,3,.2.2,0,0,0,.245-.042C764.825,350.846,778.443,337.192,777.736,335.261Z" transform="translate(-538.175 198.757)" fill="#9e616a"/>
    <path id="Path_75" data-name="Path 75" d="M796.86,291.961a57.5,57.5,0,0,0-2.716-9.164,19.254,19.254,0,0,0-5.512-7.7,6.445,6.445,0,0,0-2.691-1.393,3.1,3.1,0,0,0-2.831.763c-1.125,1.183-.786,3.081-.374,4.66l3.648,13.968,10.536-1.117Z" transform="translate(-556.484 236.728)" fill="#3f3d56"/>
    <path id="Path_76" data-name="Path 76" d="M728.824,191.3a29.14,29.14,0,0,0-1.359-5.993,9.686,9.686,0,0,0-3.578-4.788c-2.66-1.716-6.1-1.385-9.086-.4a13.785,13.785,0,0,0-6.184,3.788,7.993,7.993,0,0,0-1.935,6.965l9.544-2.255-.348.246a7.684,7.684,0,0,1,4.1,5.344,7.961,7.961,0,0,1-1.68,6.612l6.509-2.309a6.6,6.6,0,0,0,3.567-2.241C729.295,194.861,729.081,192.989,728.824,191.3Z" transform="translate(-500.035 306.924)" fill="#3f3d56"/>
  </g>
</svg>
